<?xml version="1.0" encoding="iso-8859-1"?>
<!-- Generator: Adobe Illustrator 19.0.0, SVG Export Plug-In . SVG Version: 6.00 Build 0)  -->
<svg version="1.1" id="Capa_1" xmlns="http://www.w3.org/2000/svg" xmlns:xlink="http://www.w3.org/1999/xlink" x="0px" y="0px"
	 viewBox="0 0 512 512" style="enable-background:new 0 0 512 512;" xml:space="preserve">
<g>
	<circle style="fill:#FF5D5D;" cx="209.5" cy="255.5" r="40"/>
	<path style="fill:#1D80FF;" d="M209.5,215.5c22.091,0,40,17.909,40,40s-17.909,40-40,40s-40-17.909-40-40
		S187.409,215.5,209.5,215.5L209.5,215.5z M290.458,319.197c4.125,7.145,1.654,16.365-5.49,20.49l-25.981,15
		c-7.145,4.125-16.365,1.654-20.49-5.49c-4.125-7.145-1.654-16.365,5.49-20.491l25.981-15
		C277.113,309.581,286.333,312.052,290.458,319.197L290.458,319.197z M369.5,255.5c0-88.366-71.634-160-160-160s-160,71.634-160,160
		s71.634,160,160,160c82.045,0,149.667-61.753,158.921-141.315C369.133,268.055,369.5,261.82,369.5,255.5z"/>
	<path style="fill:#FFC66C;" d="M269.968,313.706l-25.981,15c-7.145,4.125-9.615,13.346-5.49,20.491s13.346,9.615,20.49,5.49
		l25.981-15c7.145-4.125,9.615-13.345,5.49-20.49C286.333,312.052,277.113,309.581,269.968,313.706z"/>
	<path style="fill:#EDF2FA;" d="M368.421,274.185C359.167,353.747,291.545,415.5,209.5,415.5c-88.366,0-160-71.634-160-160
		s71.634-160,160-160s160,71.634,160,160C369.5,261.82,369.133,268.055,368.421,274.185L368.421,274.185z M462,56H50
		c-22,0-40,18-40,40v320c0,22,18,40,40,40h412c22,0,40-18,40-40V96C502,73.999,484,56,462,56L462,56z M447.432,124.062
		c0,11.046-8.954,20-20,20s-20-8.954-20-20s8.954-20,20-20S447.432,113.016,447.432,124.062z"/>
	<path style="fill:#FFC66C;" d="M423.155,143.604c1.378,0.3,2.809,0.458,4.276,0.458c11.046,0,20-8.954,20-20s-8.954-20-20-20
		s-20,8.954-20,20C407.432,133.64,414.165,141.645,423.155,143.604z"/>
</g>
<path d="M462,46H50C22.43,46,0,68.43,0,96v320c0,27.57,22.43,50,50,50h412c27.57,0,50-22.43,50-50V96C512,68.43,489.57,46,462,46z
	 M492,416c0,16.542-13.458,30-30,30H50c-16.542,0-30-13.458-30-30V96c0-16.542,13.458-30,30-30h412c16.542,0,30,13.458,30,30V416z"
	/>
<path d="M209.5,245.499c-5.508,0-10,4.492-10,10s4.492,10,10,10s10-4.492,10-10C219.5,249.992,215.008,245.499,209.5,245.499z"/>
<path d="M457.432,124.062c0-16.542-13.458-30-30-30s-30,13.458-30,30c0,10.742,5.679,20.179,14.188,25.479l-22.08,100.904
	l-10.05,5.802c0.001-0.249,0.009-0.497,0.009-0.746c0-93.739-76.262-170.001-170-170.001s-170,76.262-170,170.001
	c0,93.738,76.262,170,170,170c85.284,0,156.093-63.129,168.173-145.111l25.691-14.833c2.437-1.406,4.167-3.774,4.769-6.522
	l23.023-105.212C445.945,151.982,457.432,139.342,457.432,124.062z M209.5,405.5c-82.71,0-150-67.29-150-150
	c0-82.711,67.29-150.001,150-150.001s150,67.29,150,150.001c0,4.242-0.186,8.442-0.534,12.596l-66.662,38.487
	c-7.758-5.705-18.478-6.65-27.337-1.537l-25.98,15c-5.769,3.33-9.899,8.723-11.631,15.185s-0.851,13.198,2.48,18.966
	c4.625,8.011,13.046,12.494,21.692,12.494c4.238,0,8.531-1.077,12.458-3.344l25.98-15c8.86-5.115,13.4-14.872,12.337-24.443
	l52.249-30.166C337.604,357.986,278.999,405.5,209.5,405.5z M279.968,331.026l-25.98,15c-2.344,1.353-5.476,0.518-6.831-1.83
	c-0.89-1.541-0.684-3.035-0.481-3.789c0.201-0.754,0.77-2.15,2.313-3.041l25.98-15c0.764-0.44,1.61-0.649,2.452-0.649
	c1.743,0,3.464,0.897,4.378,2.479C283.153,326.543,282.315,329.671,279.968,331.026z M427.432,114.062c5.514,0,10,4.486,10,10
	c0,5.514-4.486,10-10,10s-10-4.486-10-10C417.432,118.548,421.918,114.062,427.432,114.062z"/>
<path d="M264.5,160.236c4.785,2.762,10.9,1.123,13.66-3.66c2.762-4.783,1.122-10.899-3.66-13.66
	c-19.736-11.393-42.213-17.416-65-17.416c-46.296,0-89.436,24.906-112.584,65c-2.762,4.783-1.123,10.898,3.66,13.66
	c1.575,0.909,3.294,1.342,4.99,1.342c3.456,0,6.817-1.794,8.67-5.002c19.587-33.926,56.09-55,95.264-55
	C228.782,145.5,247.801,150.596,264.5,160.236z"/>
<path d="M209.5,165.5c-12.656,0-24.939,2.604-36.506,7.736c-5.048,2.24-7.324,8.149-5.084,13.197
	c1.655,3.73,5.313,5.945,9.146,5.945c1.354,0,2.732-0.276,4.051-0.861c8.997-3.993,18.55-6.018,28.393-6.018
	c6.116,0,12.211,0.803,18.117,2.385c5.333,1.431,10.818-1.736,12.247-7.071c1.43-5.334-1.736-10.817-7.071-12.247
	C225.2,166.532,217.363,165.5,209.5,165.5z"/>
<path d="M160.114,205.892c3.905-3.905,3.905-10.237,0-14.143c-3.906-3.904-10.236-3.904-14.143,0l-0.111,0.111
	c-3.905,3.905-3.905,10.237,0,14.143c1.953,1.952,4.512,2.929,7.071,2.929s5.118-0.977,7.071-2.929L160.114,205.892z"/>
<path d="M259.5,255.5c0-27.57-22.43-50-50-50s-50,22.43-50,50c0,27.569,22.43,49.999,50,49.999S259.5,283.069,259.5,255.5z
	 M209.5,285.499c-16.542,0-30-13.457-30-29.999s13.458-30,30-30s30,13.458,30,30S226.042,285.499,209.5,285.499z"/>
<path d="M463,368h-41c-5.522,0-10,4.478-10,10s4.478,10,10,10h41c5.522,0,10-4.478,10-10S468.522,368,463,368z"/>
<path d="M463,405h-41c-5.522,0-10,4.478-10,10s4.478,10,10,10h41c5.522,0,10-4.478,10-10S468.522,405,463,405z"/>
<path d="M463,331h-41c-5.522,0-10,4.478-10,10s4.478,10,10,10h41c5.522,0,10-4.478,10-10S468.522,331,463,331z"/>
<g>
</g>
<g>
</g>
<g>
</g>
<g>
</g>
<g>
</g>
<g>
</g>
<g>
</g>
<g>
</g>
<g>
</g>
<g>
</g>
<g>
</g>
<g>
</g>
<g>
</g>
<g>
</g>
<g>
</g>
</svg>
